# xmcd
#
# Track frame offsets: 
#        150
#        12995
#        22217
#        34792
#        49146
#        62131
#        77052
#        87028
#        99160
#        110394
#        121276
#        132505
#        144713
#        156712
#        166988
#
# Disc length: 2366 seconds
#
# Revision: 0
# Processed by: cddbd v1.5.2PL0 Copyright (c) Steve Scherf et al.
# Submitted via: ExactAudioCopyFreeDBPlugin 1.0
#
DISCID=cb093c0f
DTITLE=Honeybees - Hive Jive
DYEAR=2007
DGENRE=Country
TTITLE0=Sweet Sweet Baby
TTITLE1=Cheat
TTITLE2=Grey Lady
TTITLE3=Do I Dare
TTITLE4=Headstrong
TTITLE5=Drama
TTITLE6=Certain Sir
TTITLE7=Leave My Kitten Alone
TTITLE8=5 x 5
TTITLE9=I Was Your Dream
TTITLE10=Long Distance
TTITLE11=One Bad Habit
TTITLE12=Star Above
TTITLE13=What A Bee
TTITLE14=Bonus?????
EXTD=
EXTT0=
EXTT1=
EXTT2=
EXTT3=
EXTT4=
EXTT5=
EXTT6=
EXTT7=
EXTT8=
EXTT9=
EXTT10=
EXTT11=
EXTT12=
EXTT13=
EXTT14=
PLAYORDER=
